<?xml version="1.0" standalone="no"?>
<!DOCTYPE svg PUBLIC "-//W3C//DTD SVG 20010904//EN"
 "http://www.w3.org/TR/2001/REC-SVG-20010904/DTD/svg10.dtd">
<svg version="1.0" xmlns="http://www.w3.org/2000/svg"
 width="281.000000pt" height="179.000000pt" viewBox="0 0 281.000000 179.000000"
 preserveAspectRatio="xMidYMid meet">
<metadata>
Created by potrace 1.15, written by Peter Selinger 2001-2017
</metadata>
<g transform="translate(0.000000,179.000000) scale(0.100000,-0.100000)"
fill="#000000" stroke="none">
<path d="M98 1743 c-18 -41 -22 -67 -22 -179 -1 -146 5 -163 54 -156 17 2 30
0 30 -6 0 -6 9 -8 20 -5 11 3 28 2 37 -2 10 -4 29 -8 43 -9 23 -1 25 -6 28
-48 3 -42 6 -48 26 -48 12 0 33 11 46 26 21 21 30 24 62 19 24 -4 38 -3 38 4
0 15 -41 41 -66 41 -17 0 -25 10 -38 49 -20 63 -21 61 9 61 29 0 129 94 145
135 16 43 12 100 -10 127 -10 14 -16 28 -13 32 3 3 -78 6 -181 6 l-187 0 -21
-47z"/>
<path d="M1008 1767 l22 -24 -37 -24 c-40 -25 -31 -5 -169 -371 l-26 -68 -173
0 -172 0 9 -52 c7 -41 16 -59 41 -81 96 -83 95 -81 102 -132 10 -67 17 -79 70
-115 37 -26 51 -30 80 -24 19 3 35 7 35 9 0 1 -7 16 -15 31 -8 16 -15 37 -15
47 0 24 37 22 45 -3 10 -32 42 -44 70 -26 13 9 26 25 30 36 8 24 25 17 25 -10
0 -22 35 -44 53 -33 6 4 4 -4 -5 -18 l-16 -26 50 -11 c27 -7 60 -12 73 -12 12
0 25 -7 29 -15 4 -12 -4 -15 -44 -15 -58 0 -51 10 -120 -173 -57 -151 -56
-162 3 -194 27 -16 69 -19 297 -23 l264 -5 32 -133 c22 -92 28 -135 20 -137
-6 -2 -26 -6 -43 -9 l-33 -5 0 44 0 45 -70 0 -70 0 0 -73 c0 -43 5 -78 12 -85
18 -18 88 -16 88 2 0 24 41 46 86 46 28 0 53 -8 80 -27 45 -31 206 -93 241
-93 13 0 50 13 83 30 72 37 190 70 279 78 l66 7 -3 46 c-4 52 -22 41 161 108
l108 41 55 -42 c30 -22 57 -39 59 -36 3 3 1 27 -4 54 -5 27 -8 51 -6 52 2 2
38 4 79 4 l76 0 0 120 c0 106 -2 119 -15 108 -18 -15 -22 -105 -4 -95 6 4 5
-2 -2 -13 -7 -12 -14 -20 -14 -19 0 1 -7 11 -15 21 -10 13 -10 17 -2 12 20
-12 15 73 -5 98 -17 20 -17 20 0 7 16 -12 17 -10 17 35 0 35 -6 54 -22 73
l-23 26 23 -19 22 -19 1 29 c2 24 2 25 6 6 4 -19 7 -21 19 -11 11 9 14 41 14
140 l0 129 -163 0 c-151 0 -163 1 -175 20 -6 11 -32 25 -56 31 -35 9 -46 16
-51 37 -3 15 -10 44 -16 64 l-10 37 -62 3 -62 3 -3 151 -3 152 -31 6 c-65 13
-65 13 -70 -70 -3 -71 -6 -78 -36 -105 -47 -43 -102 -41 -148 5 -33 33 -34 37
-34 111 l0 77 -57 -7 c-31 -4 -62 -9 -70 -12 -9 -4 -3 22 18 78 45 120 48 114
-48 117 l-83 3 0 55 c0 54 -1 55 -27 52 -21 -2 -29 -10 -36 -38 -11 -43 -21
-54 -77 -82 -38 -19 -48 -31 -60 -69 -21 -62 -35 -77 -81 -89 -43 -12 -45 -16
-25 -45 9 -13 11 -28 5 -42 -7 -20 -16 -23 -58 -23 -45 0 -49 2 -56 27 -5 22
1 33 43 72 27 25 59 53 71 61 15 10 27 35 36 75 9 42 20 64 37 75 13 8 37 28
53 45 l30 30 -73 3 c-53 2 -78 -1 -94 -13 -13 -8 -29 -15 -38 -15 -8 0 -23
-14 -32 -31 -16 -28 -21 -30 -65 -27 l-48 3 2 43 2 42 -86 0 -86 0 21 -23z
m503 -466 c7 -17 5 -37 -7 -67 -15 -40 -15 -46 0 -86 16 -40 16 -46 1 -82 -9
-21 -14 -49 -11 -62 6 -22 12 -24 61 -24 49 0 55 2 55 21 0 11 14 33 30 47 20
18 30 36 30 55 0 46 26 96 56 107 39 15 50 8 63 -46 7 -28 22 -55 37 -66 31
-25 31 -51 -1 -76 -44 -35 -32 -42 68 -42 l92 0 19 -82 c14 -66 25 -89 51
-115 18 -18 40 -33 48 -33 21 0 13 -28 -43 -141 -26 -52 -53 -119 -60 -147 -8
-29 -17 -52 -20 -52 -4 0 -13 28 -21 63 l-14 62 -187 3 c-104 1 -188 5 -188 7
0 3 7 22 16 44 8 22 14 50 12 63 -3 21 -9 23 -80 28 l-76 5 24 60 c27 65 25
85 -6 85 -13 0 -20 7 -20 20 0 12 -7 35 -16 51 -14 28 -14 35 2 79 17 47 17
51 0 88 -16 36 -16 41 -1 80 16 39 16 45 1 83 -18 45 -14 73 17 106 20 22 21
22 40 5 11 -9 23 -28 28 -41z m-302 -96 c33 -16 41 -33 41 -82 0 -26 8 -43 32
-66 23 -23 34 -45 40 -82 5 -34 15 -57 32 -71 22 -19 46 -55 46 -68 0 -3 -25
-6 -55 -6 l-55 0 0 35 c0 26 -9 45 -35 74 -26 29 -35 47 -35 74 0 27 -9 47
-40 82 -43 49 -46 59 -30 99 11 30 20 32 59 11z m735 -792 c12 -47 14 -69 6
-71 -27 -9 -107 -56 -206 -121 -59 -39 -113 -71 -120 -71 -11 0 -84 274 -84
315 0 13 31 15 194 15 l194 0 16 -67z"/>
<path d="M2127 1753 c3 -21 6 -38 7 -39 1 -1 18 -4 38 -7 34 -5 37 -4 40 21
l3 27 298 3 c255 2 297 4 297 17 0 13 -46 15 -344 15 l-345 0 6 -37z"/>
<path d="M23 1363 l-23 -4 0 -219 0 -218 53 0 c52 0 109 19 135 45 15 15 257
19 266 4 3 -4 -9 -61 -27 -126 -28 -102 -36 -119 -57 -127 -32 -12 -78 -55
-96 -90 -10 -19 -22 -28 -39 -28 -31 0 -31 6 0 111 34 115 33 153 -4 190 -16
16 -34 29 -39 29 -13 0 -38 -53 -53 -113 -9 -39 -17 -50 -44 -61 -18 -8 -36
-19 -39 -25 -4 -6 -18 -11 -32 -11 l-24 0 0 -140 0 -140 89 0 90 0 -30 -63
c-58 -124 -69 -244 -32 -339 l15 -38 293 0 293 0 -20 72 c-32 117 -56 160
-105 183 -40 18 -43 23 -43 58 0 22 14 69 32 110 27 60 33 84 33 144 0 62 -3
75 -25 98 -32 35 -68 53 -119 61 -23 4 -41 8 -41 10 0 2 16 61 35 129 20 69
33 130 30 135 -4 6 -66 10 -138 11 -73 0 -126 3 -119 6 6 2 12 12 12 22 0 9 5
22 11 28 17 17 13 123 -5 165 -19 43 -82 108 -106 108 -9 0 -20 4 -25 9 -13
11 -73 19 -102 14z"/>
<path d="M792 128 c-34 -51 -62 -103 -62 -118 0 -6 26 -10 64 -10 l64 0 16 68
c15 65 15 67 -5 85 -32 26 -45 21 -77 -25z"/>
</g>
</svg>
